<svg width="0" height="0" class="hidden"><symbol xmlns="http://www.w3.org/2000/svg" id="cart"><path fill="#FFF" paint-order="stroke fill markers" fill-rule="evenodd" d="M18.726 4.663h.001l-2.475 5.5a.824.824 0 0 1-.697.485l-7.128.475.412 1.176H16.6a1.65 1.65 0 1 1-1.65 1.65h-7.7A1.65 1.65 0 1 1 5.6 12.3h1.49L3.916 3.225h-1.89a.825.825 0 0 1 0-1.65H4.5c.36 0 .663.232.776.553h.003l.48 1.372h12.216a.825.825 0 0 1 .751 1.163zm-12.39.487l1.526 4.357 7.089-.473 1.748-3.884H6.337z"/></symbol><symbol xmlns="http://www.w3.org/2000/svg" id="pinterest"><path fill="#FFF" paint-order="stroke fill markers" fill-rule="evenodd" d="M10.05 17.854c-.208.833-.419 1.706-.637 2.56-.215.842-.405 1.696-.718 2.47-.519 1.281-1.178 2.52-2.043 3.521-.575.667-.453.4-.626.365-.132-.028-.143-.157-.17-.345-.14-1.018-.044-2.195.008-3.34.06-1.303.334-2.387.589-3.47.484-2.064.946-4.087 1.435-6.164.032-.138.12-.366.09-.445-.222-.577-.366-1.095-.429-1.7a5.41 5.41 0 0 1 .14-1.944c.276-1.058.912-1.995 1.893-2.338.624-.216 1.315-.118 1.735.132.432.259.729.667.867 1.246.148.615.039 1.35-.08 1.891-.267 1.219-.618 2.134-.937 3.31-.158.583-.337 1.182-.19 1.812.137.578.438.976.848 1.275.426.31.93.48 1.625.455 1.228-.043 2.081-.828 2.651-1.568.913-1.185 1.465-2.784 1.675-4.686.067-.614.117-1.319.07-2.014-.088-1.284-.49-2.317-1.127-3.117-.606-.763-1.466-1.37-2.512-1.71-1.037-.34-2.472-.452-3.747-.234-2.318.397-3.952 1.714-4.915 3.533a7.078 7.078 0 0 0-.837 3.41c0 1.05.26 1.865.678 2.5.133.201.328.367.458.597.185.326-.028.811-.12 1.164-.11.425-.12 1.012-.617 1.022-.206.004-.464-.146-.638-.243-1.305-.721-2.097-2.033-2.422-3.734a8.934 8.934 0 0 1 0-3.238c.19-.967.544-1.858.937-2.581a9.238 9.238 0 0 1 3.459-3.563c1.116-.66 2.375-1.123 3.907-1.346a16.417 16.417 0 0 1 1.605-.132 9.638 9.638 0 0 1 4.326.81 8.849 8.849 0 0 1 2.98 2.146c.838.915 1.448 1.98 1.834 3.309.202.692.398 1.432.398 2.287 0 .858-.181 1.613-.308 2.368-.474 2.828-1.819 5.141-3.838 6.458a6.635 6.635 0 0 1-1.754.809c-.667.194-1.428.34-2.243.283a4.599 4.599 0 0 1-1.983-.577c-.54-.305-.994-.679-1.316-1.244z"/></symbol><symbol xmlns="http://www.w3.org/2000/svg" id="facebook"><path fill="#FFF" paint-order="stroke fill markers" fill-rule="evenodd" d="M13.09 2.199v4.12s-3.038-.302-3.799.862c-.416.636-.169 2.5-.206 3.838h4.03c-.341 1.564-.585 2.624-.836 3.978H9.063v12.804H3.48V15.047H1.106V11.02h2.349c.12-2.946.165-5.864 1.629-7.35C6.728 2 8.297 2.2 13.089 2.2z"/></symbol><symbol xmlns="http://www.w3.org/2000/svg" id="glass"><path fill="#FFF" paint-order="stroke fill markers" fill-rule="evenodd" d="M18.317 15.983a1.65 1.65 0 1 1-2.334 2.334l-4.836-4.836A6.56 6.56 0 0 1 7.8 14.4a6.6 6.6 0 1 1 6.6-6.6 6.558 6.558 0 0 1-.92 3.347l4.837 4.836zM7.8 2.849a4.95 4.95 0 1 0 0 9.9 4.95 4.95 0 0 0 0-9.9z"/></symbol><symbol xmlns="http://www.w3.org/2000/svg" id="twitter"><path fill="#FFF" paint-order="stroke fill markers" fill-rule="evenodd" d="M18.513 1.601c2.034-.036 3.117.705 4.15 1.647.879-.075 2.02-.565 2.692-.907l.653-.357c-.384 1.037-.904 1.85-1.704 2.466-.178.136-.354.321-.577.408v.013c1.14-.011 2.08-.526 2.973-.805v.013c-.469.745-1.104 1.502-1.781 2.044l-.82.651c.015 1.207-.018 2.359-.243 3.373-1.312 5.895-4.788 9.897-10.29 11.612-1.975.615-5.167.868-7.43.306-1.123-.278-2.137-.593-3.088-1.009a12.285 12.285 0 0 1-1.487-.767l-.461-.28c.51.015 1.108.156 1.678.063.517-.083 1.023-.061 1.5-.165 1.188-.261 2.243-.606 3.151-1.138.441-.258 1.11-.56 1.423-.932-.59.01-1.125-.127-1.563-.281-1.7-.6-2.688-1.703-3.332-3.36.515.057 1.998.19 2.345-.102-.648-.036-1.271-.411-1.717-.69-1.367-.855-2.481-2.289-2.473-4.496l.538.255c.344.145.693.222 1.102.307.173.036.52.137.718.063h-.026c-.264-.307-.695-.512-.96-.843-.878-1.09-1.7-2.766-1.18-4.764a6.1 6.1 0 0 1 .564-1.367l.026.012c.102.214.33.371.474.55.448.555 1 1.054 1.563 1.494 1.918 1.5 3.645 2.422 6.42 3.104a9.967 9.967 0 0 0 2.357.307c-.236-.687-.16-1.8.025-2.465.468-1.674 1.483-2.88 2.973-3.526a6.312 6.312 0 0 1 1.166-.358l.64-.076z"/></symbol><symbol xmlns="http://www.w3.org/2000/svg" id="instagram"><path fill="#FFF" paint-order="stroke fill markers" fill-rule="evenodd" d="M23.7 26.8H4.5a3.2 3.2 0 0 1-3.2-3.2V4.4a3.2 3.2 0 0 1 3.2-3.2h19.2a3.2 3.2 0 0 1 3.2 3.2v19.2a3.2 3.2 0 0 1-3.2 3.2zM14.1 9.04a4.957 4.957 0 0 0-4.498 2.88h-.005l-.022.054a4.935 4.935 0 0 0-.128.321c-.02.053-.04.104-.057.156a4.999 4.999 0 0 0-.095.34c-.014.053-.03.106-.042.16a4.983 4.983 0 0 0-.061.368c-.007.05-.017.099-.023.15a4.96 4.96 0 1 0 9.861 0c-.005-.051-.015-.1-.022-.15a4.983 4.983 0 0 0-.061-.368c-.012-.054-.028-.107-.042-.16a4.999 4.999 0 0 0-.095-.34c-.017-.052-.038-.103-.057-.156a4.935 4.935 0 0 0-.128-.32l-.022-.056h-.005A4.957 4.957 0 0 0 14.1 9.04zm9.92-3.68a1.28 1.28 0 0 0-1.28-1.28h-2.56a1.28 1.28 0 0 0-1.28 1.28v2.56c0 .707.573 1.28 1.28 1.28h2.56a1.28 1.28 0 0 0 1.28-1.28V5.36zm0 6.56h-2.36a7.84 7.84 0 0 1-7.56 9.92 7.84 7.84 0 0 1-7.56-9.92H4.18v10.72c0 .707.573 1.28 1.28 1.28h17.28a1.28 1.28 0 0 0 1.28-1.28V11.92z"/></symbol></svg>