<svg width="0" height="0" class="hidden"><symbol xmlns="http://www.w3.org/2000/svg" id="ALARM"><path fill="#95E1D3" paint-order="stroke fill markers" fill-rule="evenodd" d="M31.74 11.503a15.719 15.719 0 0 0-8.243-8.243c1-.787 2.258-1.26 3.629-1.26A5.874 5.874 0 0 1 33 7.874a5.846 5.846 0 0 1-1.26 3.629zM31.5 18c0 3.852-1.512 7.343-3.963 9.94l2.029 2.028a1.483 1.483 0 0 1-2.097 2.097l-2.18-2.178A14.419 14.419 0 0 1 17 32.5a14.42 14.42 0 0 1-8.276-2.603L6.561 32.06a1.5 1.5 0 1 1-2.121-2.12l2.011-2.012C4.008 25.332 2.5 21.845 2.5 18 2.5 9.992 8.992 3.5 17 3.5S31.5 9.992 31.5 18zM17 6.5C10.649 6.5 5.5 11.648 5.5 18c0 6.351 5.149 11.5 11.5 11.5S28.5 24.35 28.5 18c0-6.352-5.149-11.5-11.5-11.5zm6 13h-6a1.5 1.5 0 0 1-1.5-1.5v-8a1.5 1.5 0 0 1 3 0v6.5H23a1.5 1.5 0 0 1 0 3zM2.287 11.705A5.967 5.967 0 0 1 1 8a6 6 0 0 1 6-6c1.4 0 2.685.483 3.706 1.287a16.056 16.056 0 0 0-8.419 8.418z"/></symbol><symbol xmlns="http://www.w3.org/2000/svg" id="BOOK"><path fill="#95E1D3" paint-order="stroke fill markers" fill-rule="evenodd" d="M33.065 26.89l-14.471 5.987a1.496 1.496 0 0 1-1.188 0L2.936 26.89A1.5 1.5 0 0 1 2 25.5v-23a1.5 1.5 0 0 1 2.073-1.385l.003.001.013.005L18 6.876 31.91 1.12l.014-.005.003-.001A1.5 1.5 0 0 1 34 2.5v23a1.5 1.5 0 0 1-.935 1.39zM16.5 9.502L5 4.743v19.754l11.5 4.759V9.503zM31 4.743l-11.5 4.76v19.753l11.5-4.76V4.745zm-9.12 6.891l5.5-2.5a1.5 1.5 0 0 1 1.241 2.731l-5.5 2.5a1.5 1.5 0 0 1-1.241-2.731zm0 5.5l5.5-2.5a1.499 1.499 0 0 1 2.12 1.365 1.5 1.5 0 0 1-.88 1.366l-5.5 2.5a1.5 1.5 0 0 1-1.241-2.73zm0 5.5l5.5-2.5a1.5 1.5 0 0 1 1.241 2.731l-5.5 2.5a1.5 1.5 0 0 1-1.241-2.731zM8 9c.221 0 .431.048.62.134l5.5 2.5a1.5 1.5 0 0 1-1.24 2.731l-5.5-2.5A1.5 1.5 0 0 1 8 9zm0 5.5c.221 0 .431.048.62.134l5.5 2.5a1.5 1.5 0 1 1-1.24 2.73v.001l-5.5-2.5A1.5 1.5 0 0 1 8 14.5zM8 20c.221 0 .431.048.62.134l5.5 2.5a1.5 1.5 0 0 1-1.24 2.731l-5.5-2.5A1.5 1.5 0 0 1 8 20z"/></symbol><symbol xmlns="http://www.w3.org/2000/svg" id="COMP"><path fill="#95E1D3" paint-order="stroke fill markers" fill-rule="evenodd" d="M31 25h-9.5v2.5l2 2v.5h-13v-.5l2-2V25H3a1.5 1.5 0 0 1-1.5-1.5v-20A1.5 1.5 0 0 1 3 2h28a1.5 1.5 0 0 1 1.5 1.5v20A1.5 1.5 0 0 1 31 25zm-.5-21h-27v17h27V4zM14 11c.414 0 .79.168 1.06.439l.94.94 2.94-2.94a1.5 1.5 0 1 1 2.121 2.121l-4 4a1.496 1.496 0 0 1-2.122 0l-2-2A1.5 1.5 0 0 1 14 11z"/></symbol><symbol xmlns="http://www.w3.org/2000/svg" id="HOME"><path fill="#95E1D3" paint-order="stroke fill markers" fill-rule="evenodd" d="M34 17.5a1.5 1.5 0 0 1-1.5 1.5 1.49 1.49 0 0 1-1.02-.406l-.003.004L18.038 5.159 18 5.122 4.554 18.568a1.5 1.5 0 1 1-2.092-2.15L16.918 1.96c.273-.283.656-.46 1.08-.46H18c.026 0 .052 0 .079.002h.012a1.983 1.983 0 0 1 .072.007c.367.04.694.212.933.468L25 7.877V6.5a1.5 1.5 0 1 1 3 0v4.378l5.598 5.598-.004.004c.25.268.406.625.406 1.02zM31 20v10.5a1.5 1.5 0 0 1-1.5 1.5h-3V20h-6v12h-14A1.5 1.5 0 0 1 5 30.5V20L18 7l13 13zm-15.5 0h-6v6h6v-6z"/></symbol><symbol xmlns="http://www.w3.org/2000/svg" id="IMAGE"><path fill="#95E1D3" paint-order="stroke fill markers" fill-rule="evenodd" d="M32.5 33h-29A1.5 1.5 0 0 1 2 31.5v-29A1.5 1.5 0 0 1 3.5 1h29A1.5 1.5 0 0 1 34 2.5v29a1.5 1.5 0 0 1-1.5 1.5zM31 4H5v26h26V4zM8.5 5.5H14a1.5 1.5 0 0 1 0 3H9.5V13a1.5 1.5 0 1 1-3 0V5.5h2zM6.5 21a1.5 1.5 0 1 1 3 0v4.5H14a1.5 1.5 0 1 1 0 3H6.5V21zM22 5.5h7.5V13a1.5 1.5 0 1 1-3 0V8.5H22a1.5 1.5 0 1 1 0-3zm0 20h4.5V21a1.5 1.5 0 0 1 3 0v7.5H22a1.5 1.5 0 0 1 0-3z"/></symbol><symbol xmlns="http://www.w3.org/2000/svg" id="LINE"><path fill="#95E1D3" paint-order="stroke fill markers" fill-rule="evenodd" d="M31.5 34h-29A1.5 1.5 0 0 1 1 32.5v-29A1.5 1.5 0 0 1 2.5 2h29A1.5 1.5 0 0 1 33 3.5v29a1.5 1.5 0 0 1-1.5 1.5zM30 5H4v26h26V5zM6.215 18.239v-.002l4-2.5v.002a1.49 1.49 0 0 1 .785-.222c.311 0 .6.095.84.257l.006-.008 6.63 4.42 7.639-5.391a1.5 1.5 0 0 1 1.764 2.426l-8.5 6a1.493 1.493 0 0 1-1.74.012l-6.657-4.438-3.135 1.96a1.5 1.5 0 0 1-1.631-2.516z"/></symbol></svg>