<svg style="display: none">

<symbol id="alarm" version="1.1" xmlns="http://www.w3.org/2000/svg" xmlns:xlink="http://www.w3.org/1999/xlink" width="34" height="34">
	<defs/><g><path fill="rgb(149,225,211)" stroke="none" paint-order="stroke fill markers" fill-rule="evenodd" d=" M 31.73963165283203 11.502825856208801 C 30.156341552734375 7.806619763374329 27.19312286376953 4.84309983253479 23.49736785888672 3.2600687742233276 C 24.496780395507812 2.473310947418213 25.754714965820312 1.9999573230743408 27.12560272216797 1.9999573230743408 C 30.369888305664062 1.9999573230743408 32.999969482421875 4.629682898521423 32.999969482421875 7.873982787132263 C 32.999969482421875 9.244956254959106 32.526641845703125 10.50265109539032 31.73963165283203 11.502825856208801 Z M 31.49999237060547 17.999732732772827 C 31.49999237060547 21.851961255073547 29.987770080566406 25.34290647506714 27.5374755859375 27.93985676765442 C 27.5374755859375 27.93985676765442 29.565597534179688 29.967695236206055 29.565597534179688 29.967695236206055 C 29.833961486816406 30.23654317855835 30.000015258789062 30.60719084739685 30.000015258789062 31.016655325889587 C 30.000015258789062 31.835735321044922 29.335914611816406 32.499699115753174 28.516860961914062 32.499699115753174 C 28.107276916503906 32.499699115753174 27.736488342285156 32.33401024341583 27.468124389648438 32.06516230106354 C 27.468124389648438 32.06516230106354 25.289627075195312 29.886587738990784 25.289627075195312 29.886587738990784 C 22.939125061035156 31.529278874397278 20.084854125976562 32.499699115753174 16.999984741210938 32.499699115753174 C 13.921180725097656 32.499699115753174 11.071830749511719 31.53350794315338 8.723960876464844 29.89670729637146 C 8.723960876464844 29.89670729637146 6.5606842041015625 32.06032907962799 6.5606842041015625 32.06032907962799 C 6.289115905761719 32.33159363269806 5.914207458496094 32.499699115753174 5.499931335449219 32.499699115753174 C 4.671607971191406 32.499699115753174 3.9999542236328125 31.827881336212158 3.9999542236328125 30.99943697452545 C 3.9999542236328125 30.58574342727661 4.167839050292969 30.210262537002563 4.439292907714844 29.938997983932495 C 4.439292907714844 29.938997983932495 6.451164245605469 27.92747163772583 6.451164245605469 27.92747163772583 C 4.0077362060546875 25.331578612327576 2.4999771118164062 21.84531557559967 2.4999771118164062 17.999732732772827 C 2.4999771118164062 9.99184000492096 8.991867065429688 3.4996153116226196 16.999984741210938 3.4996153116226196 C 25.008102416992188 3.4996153116226196 31.49999237060547 9.99184000492096 31.49999237060547 17.999732732772827 Z M 16.999984741210938 6.499535441398621 C 10.648628234863281 6.499535441398621 5.499931335449219 11.64812457561493 5.499931335449219 17.999732732772827 C 5.499931335449219 24.351189851760864 10.648628234863281 29.499778985977173 16.999984741210938 29.499778985977173 C 23.351226806640625 29.499778985977173 28.499923706054688 24.351189851760864 28.499923706054688 17.999732732772827 C 28.499923706054688 11.64812457561493 23.351226806640625 6.499535441398621 16.999984741210938 6.499535441398621 Z M 23.00000762939453 19.49984383583069 C 23.00000762939453 19.49984383583069 16.999984741210938 19.49984383583069 16.999984741210938 19.49984383583069 C 16.171546936035156 19.49984383583069 15.500007629394531 18.828177094459534 15.500007629394531 17.999732732772827 C 15.500007629394531 17.999732732772827 15.500007629394531 9.999542951583862 15.500007629394531 9.999542951583862 C 15.500007629394531 9.171551704406738 16.171546936035156 8.499884963035583 16.999984741210938 8.499884963035583 C 17.82842254638672 8.499884963035583 18.499961853027344 9.171551704406738 18.499961853027344 9.999542951583862 C 18.499961853027344 9.999542951583862 18.499961853027344 16.499470591545105 18.499961853027344 16.499470591545105 C 18.499961853027344 16.499470591545105 23.00000762939453 16.499470591545105 23.00000762939453 16.499470591545105 C 23.828445434570312 16.499470591545105 24.499984741210938 17.17113733291626 24.499984741210938 17.999732732772827 C 24.499984741210938 18.828177094459534 23.828445434570312 19.49984383583069 23.00000762939453 19.49984383583069 Z M 2.2872314453125 11.705368041992188 C 1.4833984375 10.684954166412354 1 9.399921417236328 1 7.999797582626343 C 1 4.685718059539795 3.6862716674804688 1.9999573230743408 6.999908447265625 1.9999573230743408 C 8.400093078613281 1.9999573230743408 9.685035705566406 2.483430504798889 10.705848693847656 3.2868025302886963 C 6.930900573730469 4.9039682149887085 3.9042816162109375 7.930622100830078 2.2872314453125 11.705368041992188 Z"/></g></svg>
</symbol>


<symbol id="book" version="1.1" xmlns="http://www.w3.org/2000/svg" xmlns:xlink="http://www.w3.org/1999/xlink" width="35" height="34">
	<defs/><g><path fill="rgb(149,225,211)" stroke="none" paint-order="stroke fill markers" fill-rule="evenodd" d=" M 33.06451416015625 26.889341115951538 C 33.06451416015625 26.889341115951538 18.59368896484375 32.877249360084534 18.59368896484375 32.877249360084534 C 18.41161346435547 32.95578920841217 18.21088409423828 32.999892354011536 17.999969482421875 32.999892354011536 C 17.78905487060547 32.999892354011536 17.58832550048828 32.95578920841217 17.40625 32.877249360084534 C 17.40625 32.877249360084534 2.9353103637695312 26.889341115951538 2.9353103637695312 26.889341115951538 C 2.3867950439453125 26.66640877723694 1.9999847412109375 26.128108739852905 1.9999847412109375 25.499940991401672 C 1.9999847412109375 25.499940991401672 1.9999847412109375 2.49969744682312 1.9999847412109375 2.49969744682312 C 1.9999847412109375 1.6711020469665527 2.6715240478515625 1.0000394582748413 3.4999618530273438 1.0000394582748413 C 3.7032089233398438 1.0000394582748413 3.896728515625 1.0405176877975464 4.07342529296875 1.1139222383499146 C 4.07342529296875 1.1139222383499146 4.073539733886719 1.1139222383499146 4.073539733886719 1.1139222383499146 C 4.073539733886719 1.1139222383499146 4.0759429931640625 1.1149795055389404 4.0759429931640625 1.1149795055389404 C 4.080406188964844 1.1161878108978271 4.084869384765625 1.1186044216156006 4.089332580566406 1.1204168796539307 C 4.089332580566406 1.1204168796539307 17.999969482421875 6.876481533050537 17.999969482421875 6.876481533050537 C 17.999969482421875 6.876481533050537 31.910606384277344 1.1204168796539307 31.910606384277344 1.1204168796539307 C 31.914955139160156 1.1186044216156006 31.919532775878906 1.1161878108978271 31.923995971679688 1.1149795055389404 C 31.923995971679688 1.1149795055389404 31.926513671875 1.1139222383499146 31.926513671875 1.1139222383499146 C 31.926513671875 1.1139222383499146 31.926513671875 1.1139222383499146 31.926513671875 1.1139222383499146 C 32.10321044921875 1.0405176877975464 32.296730041503906 1.0000394582748413 32.499977111816406 1.0000394582748413 C 33.32841491699219 1.0000394582748413 33.99995422363281 1.6711020469665527 33.99995422363281 2.49969744682312 C 33.99995422363281 2.49969744682312 33.99995422363281 25.499940991401672 33.99995422363281 25.499940991401672 C 33.99995422363281 26.128108739852905 33.61314392089844 26.66640877723694 33.06451416015625 26.889341115951538 Z M 16.49999237060547 9.50258219242096 C 16.49999237060547 9.50258219242096 4.99993896484375 4.7438225746154785 4.99993896484375 4.7438225746154785 C 4.99993896484375 4.7438225746154785 4.99993896484375 24.496745467185974 4.99993896484375 24.496745467185974 C 4.99993896484375 24.496745467185974 16.49999237060547 29.255656123161316 16.49999237060547 29.255656123161316 C 16.49999237060547 29.255656123161316 16.49999237060547 9.50258219242096 16.49999237060547 9.50258219242096 Z M 31 4.7438225746154785 C 31 4.7438225746154785 19.49994659423828 9.50258219242096 19.49994659423828 9.50258219242096 C 19.49994659423828 9.50258219242096 19.49994659423828 29.255656123161316 19.49994659423828 29.255656123161316 C 19.49994659423828 29.255656123161316 31 24.496745467185974 31 24.496745467185974 C 31 24.496745467185974 31 4.7438225746154785 31 4.7438225746154785 Z M 21.879287719726562 11.634032845497131 C 21.879287719726562 11.634032845497131 27.379318237304688 9.134200096130371 27.379318237304688 9.134200096130371 C 27.379318237304688 9.134200096130371 27.379318237304688 9.134200096130371 27.379318237304688 9.134200096130371 C 27.56848907470703 9.04780626296997 27.778488159179688 8.999625086784363 27.99993133544922 8.999625086784363 C 28.828369140625 8.999625086784363 29.500022888183594 9.671291828155518 29.500022888183594 10.499736189842224 C 29.500022888183594 11.106607556343079 29.139305114746094 11.629350662231445 28.62065887451172 11.865272283554077 C 28.62065887451172 11.865272283554077 28.62065887451172 11.865272283554077 28.62065887451172 11.865272283554077 C 28.62065887451172 11.865272283554077 23.120628356933594 14.365105032920837 23.120628356933594 14.365105032920837 C 23.120628356933594 14.365105032920837 23.120628356933594 14.365105032920837 23.120628356933594 14.365105032920837 C 22.93145751953125 14.451649904251099 22.721458435058594 14.499831080436707 22.500015258789062 14.499831080436707 C 21.67157745361328 14.499831080436707 20.999923706054688 13.828164339065552 20.999923706054688 12.999568939208984 C 20.999923706054688 12.39284861087799 21.360641479492188 11.870105504989624 21.879287719726562 11.634032845497131 Z M 21.879287719726562 17.134389877319336 C 21.879287719726562 17.134389877319336 21.879287719726562 17.134389877319336 21.879287719726562 17.134389877319336 C 21.879287719726562 17.134389877319336 27.379318237304688 14.633952975273132 27.379318237304688 14.633952975273132 C 27.379318237304688 14.633952975273132 27.379318237304688 14.633952975273132 27.379318237304688 14.633952975273132 C 27.56848907470703 14.548163294792175 27.778488159179688 14.499831080436707 27.99993133544922 14.499831080436707 C 28.828369140625 14.499831080436707 29.500022888183594 15.171044707298279 29.500022888183594 15.999489068984985 C 29.500022888183594 16.606964588165283 29.139305114746094 17.129103541374207 28.62065887451172 17.36502516269684 C 28.62065887451172 17.36502516269684 23.120628356933594 19.865462064743042 23.120628356933594 19.865462064743042 C 23.120628356933594 19.865462064743042 23.120628356933594 19.8648579120636 23.120628356933594 19.8648579120636 C 22.93145751953125 19.951251745224 22.721458435058594 19.999583959579468 22.500015258789062 19.999583959579468 C 21.67157745361328 19.999583959579468 20.999923706054688 19.327917218208313 20.999923706054688 18.49992597103119 C 20.999923706054688 17.892601490020752 21.360641479492188 17.37046253681183 21.879287719726562 17.134389877319336 Z M 21.879287719726562 22.634142756462097 C 21.879287719726562 22.634142756462097 21.879287719726562 22.634142756462097 21.879287719726562 22.634142756462097 C 21.879287719726562 22.634142756462097 27.379318237304688 20.134310007095337 27.379318237304688 20.134310007095337 C 27.379318237304688 20.134310007095337 27.379318237304688 20.134310007095337 27.379318237304688 20.134310007095337 C 27.56848907470703 20.047916173934937 27.778488159179688 19.999583959579468 27.99993133544922 19.999583959579468 C 28.828369140625 19.999583959579468 29.500022888183594 20.671401739120483 29.500022888183594 21.49984610080719 C 29.500022888183594 22.106566429138184 29.139305114746094 22.62930953502655 28.62065887451172 22.865382194519043 C 28.62065887451172 22.865382194519043 28.62065887451172 22.865382194519043 28.62065887451172 22.865382194519043 C 28.62065887451172 22.865382194519043 23.120628356933594 25.365214943885803 23.120628356933594 25.365214943885803 C 23.120628356933594 25.365214943885803 23.120628356933594 25.365214943885803 23.120628356933594 25.365214943885803 C 22.93145751953125 25.451608777046204 22.721458435058594 25.499940991401672 22.500015258789062 25.499940991401672 C 21.67157745361328 25.499940991401672 20.999923706054688 24.828123211860657 20.999923706054688 23.99967885017395 C 20.999923706054688 23.392958521842957 21.360641479492188 22.87021541595459 21.879287719726562 22.634142756462097 Z M 8.000007629394531 8.999625086784363 C 8.221450805664062 8.999625086784363 8.431449890136719 9.04780626296997 8.620620727539062 9.134200096130371 C 8.620620727539062 9.134200096130371 8.620620727539062 9.134200096130371 8.620620727539062 9.134200096130371 C 8.620620727539062 9.134200096130371 14.120651245117188 11.634032845497131 14.120651245117188 11.634032845497131 C 14.120651245117188 11.634032845497131 14.120651245117188 11.634032845497131 14.120651245117188 11.634032845497131 C 14.639297485351562 11.870105504989624 15.000015258789062 12.39284861087799 15.000015258789062 12.999568939208984 C 15.000015258789062 13.828164339065552 14.328361511230469 14.499831080436707 13.499923706054688 14.499831080436707 C 13.278480529785156 14.499831080436707 13.0684814453125 14.451649904251099 12.879310607910156 14.365105032920837 C 12.879310607910156 14.365105032920837 12.879310607910156 14.365105032920837 12.879310607910156 14.365105032920837 C 12.879310607910156 14.365105032920837 7.379280090332031 11.865272283554077 7.379280090332031 11.865272283554077 C 7.379280090332031 11.865272283554077 7.379280090332031 11.865272283554077 7.379280090332031 11.865272283554077 C 6.860633850097656 11.629350662231445 6.499916076660156 11.106607556343079 6.499916076660156 10.499736189842224 C 6.499916076660156 9.671291828155518 7.17156982421875 8.999625086784363 8.000007629394531 8.999625086784363 Z M 8.000007629394531 14.499831080436707 C 8.221450805664062 14.499831080436707 8.431449890136719 14.548163294792175 8.620620727539062 14.633952975273132 C 8.620620727539062 14.633952975273132 8.620620727539062 14.633952975273132 8.620620727539062 14.633952975273132 C 8.620620727539062 14.633952975273132 14.120651245117188 17.134389877319336 14.120651245117188 17.134389877319336 C 14.120651245117188 17.134389877319336 14.120651245117188 17.134389877319336 14.120651245117188 17.134389877319336 C 14.639297485351562 17.37046253681183 15.000015258789062 17.892601490020752 15.000015258789062 18.49992597103119 C 15.000015258789062 19.327917218208313 14.328361511230469 19.999583959579468 13.499923706054688 19.999583959579468 C 13.278480529785156 19.999583959579468 13.0684814453125 19.951251745224 12.879310607910156 19.8648579120636 C 12.879310607910156 19.8648579120636 12.879310607910156 19.865462064743042 12.879310607910156 19.865462064743042 C 12.879310607910156 19.865462064743042 7.379280090332031 17.36502516269684 7.379280090332031 17.36502516269684 C 7.379280090332031 17.36502516269684 7.379280090332031 17.36502516269684 7.379280090332031 17.36502516269684 C 6.860633850097656 17.129103541374207 6.499916076660156 16.606964588165283 6.499916076660156 15.999489068984985 C 6.499916076660156 15.171044707298279 7.17156982421875 14.499831080436707 8.000007629394531 14.499831080436707 Z M 8.000007629394531 19.999583959579468 C 8.221450805664062 19.999583959579468 8.431449890136719 20.047916173934937 8.620620727539062 20.134310007095337 C 8.620620727539062 20.134310007095337 8.620620727539062 20.134310007095337 8.620620727539062 20.134310007095337 C 8.620620727539062 20.134310007095337 14.120651245117188 22.634142756462097 14.120651245117188 22.634142756462097 C 14.120651245117188 22.634142756462097 14.120651245117188 22.634142756462097 14.120651245117188 22.634142756462097 C 14.639297485351562 22.87021541595459 15.000015258789062 23.392958521842957 15.000015258789062 23.99967885017395 C 15.000015258789062 24.828123211860657 14.328361511230469 25.499940991401672 13.499923706054688 25.499940991401672 C 13.278480529785156 25.499940991401672 13.0684814453125 25.451608777046204 12.879310607910156 25.365214943885803 C 12.879310607910156 25.365214943885803 12.879310607910156 25.365214943885803 12.879310607910156 25.365214943885803 C 12.879310607910156 25.365214943885803 7.379280090332031 22.865382194519043 7.379280090332031 22.865382194519043 C 7.379280090332031 22.865382194519043 7.379280090332031 22.865382194519043 7.379280090332031 22.865382194519043 C 6.860633850097656 22.62930953502655 6.499916076660156 22.106566429138184 6.499916076660156 21.49984610080719 C 6.499916076660156 20.671401739120483 7.17156982421875 19.999583959579468 8.000007629394531 19.999583959579468 Z"/></g></svg>
</symbol>


<symbol id="comp" version="1.1" xmlns="http://www.w3.org/2000/svg" xmlns:xlink="http://www.w3.org/1999/xlink" width="34" height="31">
<defs/><g><path fill="rgb(149,225,211)" stroke="none" paint-order="stroke fill markers" fill-rule="evenodd" d=" M 31.000038146972656 24.99959671497345 C 31.000038146972656 24.99959671497345 23.500038146972656 24.99959671497345 23.500038146972656 24.99959671497345 C 23.500038146972656 24.99959671497345 21.499954223632812 24.99959671497345 21.499954223632812 24.99959671497345 C 21.499954223632812 24.99959671497345 21.499954223632812 27.49942946434021 21.499954223632812 27.49942946434021 C 21.499954223632812 27.49942946434021 23.500038146972656 29.499778985977173 23.500038146972656 29.499778985977173 C 23.500038146972656 29.499778985977173 23.500038146972656 29.999866366386414 23.500038146972656 29.999866366386414 C 23.500038146972656 29.999866366386414 10.500007629394531 29.999866366386414 10.500007629394531 29.999866366386414 C 10.500007629394531 29.999866366386414 10.500007629394531 29.499778985977173 10.500007629394531 29.499778985977173 C 10.500007629394531 29.499778985977173 12.499977111816406 27.49942946434021 12.499977111816406 27.49942946434021 C 12.499977111816406 27.49942946434021 12.499977111816406 24.99959671497345 12.499977111816406 24.99959671497345 C 12.499977111816406 24.99959671497345 10.500007629394531 24.99959671497345 10.500007629394531 24.99959671497345 C 10.500007629394531 24.99959671497345 3.0000076293945312 24.99959671497345 3.0000076293945312 24.99959671497345 C 2.17156982421875 24.99959671497345 1.500030517578125 24.327929973602295 1.500030517578125 23.499334573745728 C 1.500030517578125 23.499334573745728 1.500030517578125 3.4996153116226196 1.500030517578125 3.4996153116226196 C 1.500030517578125 2.671170949935913 2.17156982421875 1.9999573230743408 3.0000076293945312 1.9999573230743408 C 3.0000076293945312 1.9999573230743408 31.000038146972656 1.9999573230743408 31.000038146972656 1.9999573230743408 C 31.828475952148438 1.9999573230743408 32.50001525878906 2.671170949935913 32.50001525878906 3.4996153116226196 C 32.50001525878906 3.4996153116226196 32.50001525878906 23.499334573745728 32.50001525878906 23.499334573745728 C 32.50001525878906 24.327929973602295 31.828475952148438 24.99959671497345 31.000038146972656 24.99959671497345 Z M 30.500045776367188 3.9997026920318604 C 30.500045776367188 3.9997026920318604 3.5 3.9997026920318604 3.5 3.9997026920318604 C 3.5 3.9997026920318604 3.5 20.999501824378967 3.5 20.999501824378967 C 3.5 20.999501824378967 30.500045776367188 20.999501824378967 30.500045776367188 20.999501824378967 C 30.500045776367188 20.999501824378967 30.500045776367188 3.9997026920318604 30.500045776367188 3.9997026920318604 Z M 13.999954223632812 10.999717712402344 C 14.414230346679688 10.999717712402344 14.789138793945312 11.167823195457458 15.060592651367188 11.438936710357666 C 15.060592651367188 11.438936710357666 15.060592651367188 11.438936710357666 15.060592651367188 11.438936710357666 C 15.060592651367188 11.438936710357666 15.999923706054688 12.37839412689209 15.999923706054688 12.37839412689209 C 15.999923706054688 12.37839412689209 18.93933868408203 9.439191341400146 18.93933868408203 9.439191341400146 C 18.93933868408203 9.439191341400146 18.93933868408203 9.439191341400146 18.93933868408203 9.439191341400146 C 19.210792541503906 9.167473673820496 19.58570098876953 8.999972343444824 19.999977111816406 8.999972343444824 C 20.828414916992188 8.999972343444824 21.499954223632812 9.671034932136536 21.499954223632812 10.499630331993103 C 21.499954223632812 10.913928031921387 21.332069396972656 11.288804769515991 21.06061553955078 11.560522437095642 C 21.06061553955078 11.560522437095642 21.06061553955078 11.560522437095642 21.06061553955078 11.560522437095642 C 21.06061553955078 11.560522437095642 17.06067657470703 15.560617327690125 17.06067657470703 15.560617327690125 C 17.06067657470703 15.560617327690125 17.06067657470703 15.560617327690125 17.06067657470703 15.560617327690125 C 16.789222717285156 15.831881880760193 16.414199829101562 15.999987363815308 15.999923706054688 15.999987363815308 C 15.585762023925781 15.999987363815308 15.210739135742188 15.831881880760193 14.939285278320312 15.560617327690125 C 14.939285278320312 15.560617327690125 14.939285278320312 15.560617327690125 14.939285278320312 15.560617327690125 C 14.939285278320312 15.560617327690125 12.939315795898438 13.560267806053162 12.939315795898438 13.560267806053162 C 12.939315795898438 13.560267806053162 12.939315795898438 13.560267806053162 12.939315795898438 13.560267806053162 C 12.667861938476562 13.289154291152954 12.499977111816406 12.913522362709045 12.499977111816406 12.499979853630066 C 12.499977111816406 11.671384453773499 13.171630859375 10.999717712402344 13.999954223632812 10.999717712402344 Z"/></g></svg>
</symbol>


<symbol id="home" version="1.1" xmlns="http://www.w3.org/2000/svg" xmlns:xlink="http://www.w3.org/1999/xlink" width="35" height="33">
	<defs/><g><path fill="rgb(149,225,211)" stroke="none" paint-order="stroke fill markers" fill-rule="evenodd" d=" M 33.99993133544922 17.499751210212708 C 33.99993133544922 18.328346610069275 33.328392028808594 18.999409198760986 32.49995422363281 18.999409198760986 C 32.10478973388672 18.999409198760986 31.748077392578125 18.84383988380432 31.48017120361328 18.594173789024353 C 31.48017120361328 18.594173789024353 31.47650909423828 18.597647666931152 31.47650909423828 18.597647666931152 C 31.47650909423828 18.597647666931152 18.038169860839844 5.159177541732788 18.038169860839844 5.159177541732788 C 18.038169860839844 5.159177541732788 18.038284301757812 5.158573389053345 18.038284301757812 5.158573389053345 C 18.038284301757812 5.158573389053345 17.99994659423828 5.122324228286743 17.99994659423828 5.122324228286743 C 17.99994659423828 5.122324228286743 17.99994659423828 5.1217200756073 17.99994659423828 5.1217200756073 C 17.99994659423828 5.1217200756073 4.553825378417969 18.56849730014801 4.553825378417969 18.56849730014801 C 4.553825378417969 18.56849730014801 4.553138732910156 18.567893147468567 4.553138732910156 18.567893147468567 C 4.282257080078125 18.83492863178253 3.9104385375976562 18.999409198760986 3.5000534057617188 18.999409198760986 C 2.6715011596679688 18.999409198760986 1.9999618530273438 18.328346610069275 1.9999618530273438 17.499751210212708 C 1.9999618530273438 17.074729800224304 2.177001953125 16.691545963287354 2.4608154296875 16.418619990348816 C 2.4608154296875 16.418619990348816 16.9188232421875 1.9601891040802002 16.9188232421875 1.9601891040802002 C 17.19176483154297 1.676539421081543 17.575027465820312 1.4995226860046387 17.99994659423828 1.4995226860046387 C 17.99994659423828 1.4995226860046387 17.99994659423828 1.4995226860046387 17.99994659423828 1.4995226860046387 C 17.99994659423828 1.4995226860046387 17.99994659423828 1.4995226860046387 17.99994659423828 1.4995226860046387 C 18.00017547607422 1.4995226860046387 18.000289916992188 1.4995226860046387 18.000518798828125 1.4995226860046387 C 18.027069091796875 1.4995226860046387 18.053390502929688 1.500126838684082 18.07959747314453 1.501939296722412 C 18.083717346191406 1.501939296722412 18.08795166015625 1.5025434494018555 18.092071533203125 1.5025434494018555 C 18.114730834960938 1.5042048692703247 18.137161254882812 1.5060173273086548 18.159591674804688 1.5084339380264282 C 18.160964965820312 1.5084339380264282 18.162452697753906 1.5084339380264282 18.1639404296875 1.5090380907058716 C 18.53106689453125 1.5489121675491333 18.858139038085938 1.7212467193603516 19.09697723388672 1.9769543409347534 C 19.09697723388672 1.9769543409347534 19.0977783203125 1.97635018825531 19.0977783203125 1.97635018825531 C 19.0977783203125 1.97635018825531 24.999954223632812 7.878317713737488 24.999954223632812 7.878317713737488 C 24.999954223632812 7.878317713737488 24.999954223632812 6.4997923374176025 24.999954223632812 6.4997923374176025 C 24.999954223632812 5.671196937561035 25.671493530273438 4.99953019618988 26.49993133544922 4.99953019618988 C 27.328369140625 4.99953019618988 27.999908447265625 5.671196937561035 27.999908447265625 6.4997923374176025 C 27.999908447265625 6.4997923374176025 27.999908447265625 10.878237843513489 27.999908447265625 10.878237843513489 C 27.999908447265625 10.878237843513489 33.59778594970703 16.476316571235657 33.59778594970703 16.476316571235657 C 33.59778594970703 16.476316571235657 33.59435272216797 16.479941487312317 33.59435272216797 16.479941487312317 C 33.84406280517578 16.747581124305725 33.99993133544922 17.10463535785675 33.99993133544922 17.499751210212708 Z M 30.999977111816406 19.999583959579468 C 30.999977111816406 19.999583959579468 30.999977111816406 24.49976623058319 30.999977111816406 24.49976623058319 C 30.999977111816406 24.49976623058319 30.999977111816406 26.49951159954071 30.999977111816406 26.49951159954071 C 30.999977111816406 26.49951159954071 30.999977111816406 30.499606490135193 30.999977111816406 30.499606490135193 C 30.999977111816406 31.3280508518219 30.32843780517578 31.999868631362915 29.5 31.999868631362915 C 29.5 31.999868631362915 26.49993133544922 31.999868631362915 26.49993133544922 31.999868631362915 C 26.49993133544922 31.999868631362915 26.49993133544922 19.999583959579468 26.49993133544922 19.999583959579468 C 26.49993133544922 19.999583959579468 20.500022888183594 19.999583959579468 20.500022888183594 19.999583959579468 C 20.500022888183594 19.999583959579468 20.500022888183594 31.999868631362915 20.500022888183594 31.999868631362915 C 20.500022888183594 31.999868631362915 6.500007629394531 31.999868631362915 6.500007629394531 31.999868631362915 C 5.67156982421875 31.999868631362915 5.000030517578125 31.3280508518219 5.000030517578125 30.499606490135193 C 5.000030517578125 30.499606490135193 5.000030517578125 26.49951159954071 5.000030517578125 26.49951159954071 C 5.000030517578125 26.49951159954071 5.000030517578125 24.49976623058319 5.000030517578125 24.49976623058319 C 5.000030517578125 24.49976623058319 5.000030517578125 19.999583959579468 5.000030517578125 19.999583959579468 C 5.000030517578125 19.999583959579468 17.99994659423828 6.999879717826843 17.99994659423828 6.999879717826843 C 17.99994659423828 6.999879717826843 30.999977111816406 19.999583959579468 30.999977111816406 19.999583959579468 Z M 15.499984741210938 19.999583959579468 C 15.499984741210938 19.999583959579468 9.499961853027344 19.999583959579468 9.499961853027344 19.999583959579468 C 9.499961853027344 19.999583959579468 9.499961853027344 26.000028371810913 9.499961853027344 26.000028371810913 C 9.499961853027344 26.000028371810913 15.499984741210938 26.000028371810913 15.499984741210938 26.000028371810913 C 15.499984741210938 26.000028371810913 15.499984741210938 19.999583959579468 15.499984741210938 19.999583959579468 Z"/></g></svg>
</symbol>

<symbol id="image2" version="1.1" xmlns="http://www.w3.org/2000/svg" xmlns:xlink="http://www.w3.org/1999/xlink" width="36" height="34">
<defs/><g><path fill="rgb(149,225,211)" stroke="none" paint-order="stroke fill markers" fill-rule="evenodd" d=" M 32.500030517578125 32.999892354011536 C 32.500030517578125 32.999892354011536 3.5000152587890625 32.999892354011536 3.5000152587890625 32.999892354011536 C 2.6714630126953125 32.999892354011536 1.9999237060546875 32.32822561264038 1.9999237060546875 31.499781250953674 C 1.9999237060546875 31.499781250953674 1.9999237060546875 2.49969744682312 1.9999237060546875 2.49969744682312 C 1.9999237060546875 1.6711020469665527 2.6714630126953125 1.0000394582748413 3.5000152587890625 1.0000394582748413 C 3.5000152587890625 1.0000394582748413 32.500030517578125 1.0000394582748413 32.500030517578125 1.0000394582748413 C 33.328468322753906 1.0000394582748413 34.00000762939453 1.6711020469665527 34.00000762939453 2.49969744682312 C 34.00000762939453 2.49969744682312 34.00000762939453 31.499781250953674 34.00000762939453 31.499781250953674 C 34.00000762939453 32.32822561264038 33.328468322753906 32.999892354011536 32.500030517578125 32.999892354011536 Z M 31.00005340576172 3.9999595880508423 C 31.00005340576172 3.9999595880508423 4.999992370605469 3.9999595880508423 4.999992370605469 3.9999595880508423 C 4.999992370605469 3.9999595880508423 4.999992370605469 29.999519109725952 4.999992370605469 29.999519109725952 C 4.999992370605469 29.999519109725952 31.00005340576172 29.999519109725952 31.00005340576172 29.999519109725952 C 31.00005340576172 29.999519109725952 31.00005340576172 3.9999595880508423 31.00005340576172 3.9999595880508423 Z M 8.500053405761719 5.499617576599121 C 8.500053405761719 5.499617576599121 13.999855041503906 5.499617576599121 13.999855041503906 5.499617576599121 C 13.999855041503906 5.499617576599121 13.999969482421875 5.499617576599121 13.999969482421875 5.499617576599121 C 14.828407287597656 5.499617576599121 15.499946594238281 6.171284317970276 15.499946594238281 6.999879717826843 C 15.499946594238281 7.82832407951355 14.828407287597656 8.499537706375122 13.999969482421875 8.499537706375122 C 13.999969482421875 8.499537706375122 13.999969482421875 8.499537706375122 13.999969482421875 8.499537706375122 C 13.999969482421875 8.499537706375122 9.500038146972656 8.499537706375122 9.500038146972656 8.499537706375122 C 9.500038146972656 8.499537706375122 9.500038146972656 12.999568939208984 9.500038146972656 12.999568939208984 C 9.500038146972656 12.999568939208984 9.500038146972656 12.999568939208984 9.500038146972656 12.999568939208984 C 9.500038146972656 13.828164339065552 8.828384399414062 14.499831080436707 7.999946594238281 14.499831080436707 C 7.171623229980469 14.499831080436707 6.499969482421875 13.828164339065552 6.499969482421875 12.999568939208984 C 6.499969482421875 12.999568939208984 6.499969482421875 12.999568939208984 6.499969482421875 12.999568939208984 C 6.499969482421875 12.999568939208984 6.499969482421875 7.499967098236084 6.499969482421875 7.499967098236084 C 6.499969482421875 7.499967098236084 6.499969482421875 7.499967098236084 6.499969482421875 7.499967098236084 C 6.499969482421875 7.499967098236084 6.499969482421875 5.499617576599121 6.499969482421875 5.499617576599121 C 6.499969482421875 5.499617576599121 8.500053405761719 5.499617576599121 8.500053405761719 5.499617576599121 C 8.500053405761719 5.499617576599121 8.500053405761719 5.499617576599121 8.500053405761719 5.499617576599121 Z M 6.499969482421875 20.99975872039795 C 6.499969482421875 20.99975872039795 6.499969482421875 20.99975872039795 6.499969482421875 20.99975872039795 C 6.499969482421875 20.171314358711243 7.171623229980469 19.499496579170227 7.999946594238281 19.499496579170227 C 8.828384399414062 19.499496579170227 9.500038146972656 20.171314358711243 9.500038146972656 20.99975872039795 C 9.500038146972656 20.99975872039795 9.500038146972656 20.99975872039795 9.500038146972656 20.99975872039795 C 9.500038146972656 20.99975872039795 9.500038146972656 25.49933683872223 9.500038146972656 25.49933683872223 C 9.500038146972656 25.49933683872223 13.999969482421875 25.49933683872223 13.999969482421875 25.49933683872223 C 13.999969482421875 25.49933683872223 13.999969482421875 25.499940991401672 13.999969482421875 25.499940991401672 C 14.828407287597656 25.499940991401672 15.499946594238281 26.171003580093384 15.499946594238281 26.99959897994995 C 15.499946594238281 27.828043341636658 14.828407287597656 28.499861121177673 13.999969482421875 28.499861121177673 C 13.999969482421875 28.499861121177673 13.999855041503906 28.499861121177673 13.999855041503906 28.499861121177673 C 13.999855041503906 28.499861121177673 8.500053405761719 28.499861121177673 8.500053405761719 28.499861121177673 C 8.500053405761719 28.499861121177673 8.500053405761719 28.499861121177673 8.500053405761719 28.499861121177673 C 8.500053405761719 28.499861121177673 6.499969482421875 28.499861121177673 6.499969482421875 28.499861121177673 C 6.499969482421875 28.499861121177673 6.499969482421875 26.49951159954071 6.499969482421875 26.49951159954071 C 6.499969482421875 26.49951159954071 6.499969482421875 26.49951159954071 6.499969482421875 26.49951159954071 C 6.499969482421875 26.49951159954071 6.499969482421875 20.99975872039795 6.499969482421875 20.99975872039795 Z M 21.999961853027344 5.499617576599121 C 21.999961853027344 5.499617576599121 22.000076293945312 5.499617576599121 22.000076293945312 5.499617576599121 C 22.000076293945312 5.499617576599121 27.49999237060547 5.499617576599121 27.49999237060547 5.499617576599121 C 27.49999237060547 5.499617576599121 27.49999237060547 5.499617576599121 27.49999237060547 5.499617576599121 C 27.49999237060547 5.499617576599121 29.499961853027344 5.499617576599121 29.499961853027344 5.499617576599121 C 29.499961853027344 5.499617576599121 29.499961853027344 7.499967098236084 29.499961853027344 7.499967098236084 C 29.499961853027344 7.499967098236084 29.499961853027344 7.499967098236084 29.499961853027344 7.499967098236084 C 29.499961853027344 7.499967098236084 29.499961853027344 12.999568939208984 29.499961853027344 12.999568939208984 C 29.499961853027344 12.999568939208984 29.499961853027344 12.999568939208984 29.499961853027344 12.999568939208984 C 29.499961853027344 13.828164339065552 28.82830810546875 14.499831080436707 27.999984741210938 14.499831080436707 C 27.171546936035156 14.499831080436707 26.499893188476562 13.828164339065552 26.499893188476562 12.999568939208984 C 26.499893188476562 12.999568939208984 26.499893188476562 12.999568939208984 26.499893188476562 12.999568939208984 C 26.499893188476562 12.999568939208984 26.499893188476562 8.499537706375122 26.499893188476562 8.499537706375122 C 26.499893188476562 8.499537706375122 21.999961853027344 8.499537706375122 21.999961853027344 8.499537706375122 C 21.999961853027344 8.499537706375122 21.999961853027344 8.499537706375122 21.999961853027344 8.499537706375122 C 21.171524047851562 8.499537706375122 20.499984741210938 7.82832407951355 20.499984741210938 6.999879717826843 C 20.499984741210938 6.171284317970276 21.171524047851562 5.499617576599121 21.999961853027344 5.499617576599121 Z M 21.999961853027344 25.499940991401672 C 21.999961853027344 25.499940991401672 21.999961853027344 25.49933683872223 21.999961853027344 25.49933683872223 C 21.999961853027344 25.49933683872223 26.499893188476562 25.49933683872223 26.499893188476562 25.49933683872223 C 26.499893188476562 25.49933683872223 26.499893188476562 20.99975872039795 26.499893188476562 20.99975872039795 C 26.499893188476562 20.99975872039795 26.499893188476562 20.99975872039795 26.499893188476562 20.99975872039795 C 26.499893188476562 20.171314358711243 27.171546936035156 19.499496579170227 27.999984741210938 19.499496579170227 C 28.82830810546875 19.499496579170227 29.499961853027344 20.171314358711243 29.499961853027344 20.99975872039795 C 29.499961853027344 20.99975872039795 29.499961853027344 20.99975872039795 29.499961853027344 20.99975872039795 C 29.499961853027344 20.99975872039795 29.499961853027344 26.49951159954071 29.499961853027344 26.49951159954071 C 29.499961853027344 26.49951159954071 29.499961853027344 26.49951159954071 29.499961853027344 26.49951159954071 C 29.499961853027344 26.49951159954071 29.499961853027344 28.499861121177673 29.499961853027344 28.499861121177673 C 29.499961853027344 28.499861121177673 27.49999237060547 28.499861121177673 27.49999237060547 28.499861121177673 C 27.49999237060547 28.499861121177673 27.49999237060547 28.499861121177673 27.49999237060547 28.499861121177673 C 27.49999237060547 28.499861121177673 22.000076293945312 28.499861121177673 22.000076293945312 28.499861121177673 C 22.000076293945312 28.499861121177673 21.999961853027344 28.499861121177673 21.999961853027344 28.499861121177673 C 21.171524047851562 28.499861121177673 20.499984741210938 27.828043341636658 20.499984741210938 26.99959897994995 C 20.499984741210938 26.171003580093384 21.171524047851562 25.499940991401672 21.999961853027344 25.499940991401672 Z"/></g></svg>
</symbol>

<symbol id="line-graph" version="1.1" xmlns="http://www.w3.org/2000/svg" xmlns:xlink="http://www.w3.org/1999/xlink" width="35" height="35">
<defs/><g><path fill="rgb(149,225,211)" stroke="none" paint-order="stroke fill markers" fill-rule="evenodd" d=" M 31.49993896484375 33.999786496162415 C 31.49993896484375 33.999786496162415 2.4999237060546875 33.999786496162415 2.4999237060546875 33.999786496162415 C 1.671600341796875 33.999786496162415 1.00006103515625 33.3279687166214 1.00006103515625 32.49952435493469 C 1.00006103515625 32.49952435493469 1.00006103515625 3.499440550804138 1.00006103515625 3.499440550804138 C 1.00006103515625 2.671600341796875 1.671600341796875 1.9997825622558594 2.4999237060546875 1.9997825622558594 C 2.4999237060546875 1.9997825622558594 31.49993896484375 1.9997825622558594 31.49993896484375 1.9997825622558594 C 32.32837677001953 1.9997825622558594 33.000030517578125 2.671600341796875 33.000030517578125 3.499440550804138 C 33.000030517578125 3.499440550804138 33.000030517578125 32.49952435493469 33.000030517578125 32.49952435493469 C 33.000030517578125 33.3279687166214 32.32837677001953 33.999786496162415 31.49993896484375 33.999786496162415 Z M 29.999961853027344 4.99970269203186 C 29.999961853027344 4.99970269203186 4.0000152587890625 4.99970269203186 4.0000152587890625 4.99970269203186 C 4.0000152587890625 4.99970269203186 4.0000152587890625 30.999866366386414 4.0000152587890625 30.999866366386414 C 4.0000152587890625 30.999866366386414 29.999961853027344 30.999866366386414 29.999961853027344 30.999866366386414 C 29.999961853027344 30.999866366386414 29.999961853027344 4.99970269203186 29.999961853027344 4.99970269203186 Z M 6.215362548828125 18.238500356674194 C 6.215362548828125 18.238500356674194 6.2146759033203125 18.237292051315308 6.2146759033203125 18.237292051315308 C 6.2146759033203125 18.237292051315308 10.214614868164062 15.737459301948547 10.214614868164062 15.737459301948547 C 10.214614868164062 15.737459301948547 10.215415954589844 15.738667607307434 10.215415954589844 15.738667607307434 C 10.4437255859375 15.598051071166992 10.712318420410156 15.516943573951721 10.999908447265625 15.516943573951721 C 11.311302185058594 15.516943573951721 11.600379943847656 15.611795544624329 11.840133666992188 15.774463653564453 C 11.840133666992188 15.774463653564453 11.845970153808594 15.765552401542664 11.845970153808594 15.765552401542664 C 11.845970153808594 15.765552401542664 18.47667694091797 20.185835480690002 18.47667694091797 20.185835480690002 C 18.47667694091797 20.185835480690002 26.11492156982422 14.794528007507324 26.11492156982422 14.794528007507324 C 26.36302947998047 14.612829089164734 26.668930053710938 14.505440950393677 27.00000762939453 14.505440950393677 C 27.828330993652344 14.505440950393677 28.499984741210938 15.176654577255249 28.499984741210938 16.005098938941956 C 28.499984741210938 16.505186319351196 28.254966735839844 16.94803023338318 27.878456115722656 17.220503091812134 C 27.878456115722656 17.220503091812134 27.87891387939453 17.221107244491577 27.87891387939453 17.221107244491577 C 27.87891387939453 17.221107244491577 19.378929138183594 23.22140061855316 19.378929138183594 23.22140061855316 C 19.378929138183594 23.22140061855316 19.37847137451172 23.22079646587372 19.37847137451172 23.22079646587372 C 19.131507873535156 23.399625658988953 18.828125 23.50520133972168 18.500022888183594 23.50520133972168 C 18.179359436035156 23.50520133972168 17.88238525390625 23.4044588804245 17.638626098632812 23.232728481292725 C 17.638626098632812 23.232728481292725 10.982398986816406 18.79522705078125 10.982398986816406 18.79522705078125 C 10.982398986816406 18.79522705078125 7.846832275390625 20.754947304725647 7.846832275390625 20.754947304725647 C 7.6058197021484375 20.920183062553406 7.3142242431640625 21.017300605773926 6.999969482421875 21.017300605773926 C 6.171531677246094 21.017300605773926 5.499992370605469 20.34548282623291 5.499992370605469 19.517038464546204 C 5.499992370605469 18.976472854614258 5.786323547363281 18.502515077590942 6.215362548828125 18.238500356674194 Z"/></g></svg>
</symbol>

</svg>
