<svg width="0" height="0" class="hidden">
  <symbol xmlns="http://www.w3.org/2000/svg" id="cart">
    <path fill="#FFF" paint-order="stroke fill markers" fill-rule="evenodd" d="M18.726 4.663h.001l-2.475 5.5a.824.824 0 0 1-.697.485l-7.128.475.412 1.176H16.6a1.65 1.65 0 1 1-1.65 1.65h-7.7A1.65 1.65 0 1 1 5.6 12.3h1.49L3.916 3.225h-1.89a.825.825 0 0 1 0-1.65H4.5c.36 0 .663.232.776.553h.003l.48 1.372h12.216a.825.825 0 0 1 .751 1.163zm-12.39.487l1.526 4.357 7.089-.473 1.748-3.884H6.337z"></path>
  </symbol>
  <symbol xmlns="http://www.w3.org/2000/svg" id="pinterest">
    <path fill="#FFF" paint-order="stroke fill markers" fill-rule="evenodd" d="M10.05 17.854c-.208.833-.419 1.706-.637 2.56-.215.842-.405 1.696-.718 2.47-.519 1.281-1.178 2.52-2.043 3.521-.575.667-.453.4-.626.365-.132-.028-.143-.157-.17-.345-.14-1.018-.044-2.195.008-3.34.06-1.303.334-2.387.589-3.47.484-2.064.946-4.087 1.435-6.164.032-.138.12-.366.09-.445-.222-.577-.366-1.095-.429-1.7a5.41 5.41 0 0 1 .14-1.944c.276-1.058.912-1.995 1.893-2.338.624-.216 1.315-.118 1.735.132.432.259.729.667.867 1.246.148.615.039 1.35-.08 1.891-.267 1.219-.618 2.134-.937 3.31-.158.583-.337 1.182-.19 1.812.137.578.438.976.848 1.275.426.31.93.48 1.625.455 1.228-.043 2.081-.828 2.651-1.568.913-1.185 1.465-2.784 1.675-4.686.067-.614.117-1.319.07-2.014-.088-1.284-.49-2.317-1.127-3.117-.606-.763-1.466-1.37-2.512-1.71-1.037-.34-2.472-.452-3.747-.234-2.318.397-3.952 1.714-4.915 3.533a7.078 7.078 0 0 0-.837 3.41c0 1.05.26 1.865.678 2.5.133.201.328.367.458.597.185.326-.028.811-.12 1.164-.11.425-.12 1.012-.617 1.022-.206.004-.464-.146-.638-.243-1.305-.721-2.097-2.033-2.422-3.734a8.934 8.934 0 0 1 0-3.238c.19-.967.544-1.858.937-2.581a9.238 9.238 0 0 1 3.459-3.563c1.116-.66 2.375-1.123 3.907-1.346a16.417 16.417 0 0 1 1.605-.132 9.638 9.638 0 0 1 4.326.81 8.849 8.849 0 0 1 2.98 2.146c.838.915 1.448 1.98 1.834 3.309.202.692.398 1.432.398 2.287 0 .858-.181 1.613-.308 2.368-.474 2.828-1.819 5.141-3.838 6.458a6.635 6.635 0 0 1-1.754.809c-.667.194-1.428.34-2.243.283a4.599 4.599 0 0 1-1.983-.577c-.54-.305-.994-.679-1.316-1.244z"></path>
  </symbol>
  <symbol xmlns="http://www.w3.org/2000/svg" id="facebook">
    <path fill="#FFF" paint-order="stroke fill markers" fill-rule="evenodd" d="M13.09 2.199v4.12s-3.038-.302-3.799.862c-.416.636-.169 2.5-.206 3.838h4.03c-.341 1.564-.585 2.624-.836 3.978H9.063v12.804H3.48V15.047H1.106V11.02h2.349c.12-2.946.165-5.864 1.629-7.35C6.728 2 8.297 2.2 13.089 2.2z"></path>
  </symbol>
  <symbol xmlns="http://www.w3.org/2000/svg" id="glass">
    <path fill="#FFF" paint-order="stroke fill markers" fill-rule="evenodd" d="M18.317 15.983a1.65 1.65 0 1 1-2.334 2.334l-4.836-4.836A6.56 6.56 0 0 1 7.8 14.4a6.6 6.6 0 1 1 6.6-6.6 6.558 6.558 0 0 1-.92 3.347l4.837 4.836zM7.8 2.849a4.95 4.95 0 1 0 0 9.9 4.95 4.95 0 0 0 0-9.9z"></path>
  </symbol>
  <symbol xmlns="http://www.w3.org/2000/svg" id="twitter">
    <path fill="#FFF" paint-order="stroke fill markers" fill-rule="evenodd" d="M18.513 1.601c2.034-.036 3.117.705 4.15 1.647.879-.075 2.02-.565 2.692-.907l.653-.357c-.384 1.037-.904 1.85-1.704 2.466-.178.136-.354.321-.577.408v.013c1.14-.011 2.08-.526 2.973-.805v.013c-.469.745-1.104 1.502-1.781 2.044l-.82.651c.015 1.207-.018 2.359-.243 3.373-1.312 5.895-4.788 9.897-10.29 11.612-1.975.615-5.167.868-7.43.306-1.123-.278-2.137-.593-3.088-1.009a12.285 12.285 0 0 1-1.487-.767l-.461-.28c.51.015 1.108.156 1.678.063.517-.083 1.023-.061 1.5-.165 1.188-.261 2.243-.606 3.151-1.138.441-.258 1.11-.56 1.423-.932-.59.01-1.125-.127-1.563-.281-1.7-.6-2.688-1.703-3.332-3.36.515.057 1.998.19 2.345-.102-.648-.036-1.271-.411-1.717-.69-1.367-.855-2.481-2.289-2.473-4.496l.538.255c.344.145.693.222 1.102.307.173.036.52.137.718.063h-.026c-.264-.307-.695-.512-.96-.843-.878-1.09-1.7-2.766-1.18-4.764a6.1 6.1 0 0 1 .564-1.367l.026.012c.102.214.33.371.474.55.448.555 1 1.054 1.563 1.494 1.918 1.5 3.645 2.422 6.42 3.104a9.967 9.967 0 0 0 2.357.307c-.236-.687-.16-1.8.025-2.465.468-1.674 1.483-2.88 2.973-3.526a6.312 6.312 0 0 1 1.166-.358l.64-.076z"></path>
  </symbol>
  <symbol xmlns="http://www.w3.org/2000/svg" id="instagram">
<path fill="#FFF" paint-order="stroke fill markers" fill-rule="evenodd" d=" M 23.69989013671875 26.799668312072754 C 23.69989013671875 26.799668312072754 4.499908447265625 26.799668312072754 4.499908447265625 26.799668312072754 C 2.7327117919921875 26.799668312072754 1.2999114990234375 25.366769194602966 1.2999114990234375 23.59947156906128 C 1.2999114990234375 23.59947156906128 1.2999114990234375 4.399650454521179 1.2999114990234375 4.399650454521179 C 1.2999114990234375 2.632352828979492 2.7327117919921875 1.1994537115097046 4.499908447265625 1.1994537115097046 C 4.499908447265625 1.1994537115097046 23.69989013671875 1.1994537115097046 23.69989013671875 1.1994537115097046 C 25.467315673828125 1.1994537115097046 26.900001525878906 2.632352828979492 26.900001525878906 4.399650454521179 C 26.900001525878906 4.399650454521179 26.900001525878906 23.59947156906128 26.900001525878906 23.59947156906128 C 26.900001525878906 25.366769194602966 25.467315673828125 26.799668312072754 23.69989013671875 26.799668312072754 Z M 14.100013732910156 9.039240956306458 C 12.104393005371094 9.039240956306458 10.388809204101562 10.220661520957947 9.6016845703125 11.919387817382812 C 9.6016845703125 11.919387817382812 9.597221374511719 11.919387817382812 9.597221374511719 11.919387817382812 C 9.588981628417969 11.937361359596252 9.5833740234375 11.956392168998718 9.575363159179688 11.974214673042297 C 9.528213500976562 12.079186201095581 9.486557006835938 12.18702745437622 9.446731567382812 12.295472860336304 C 9.427619934082031 12.348034143447876 9.407135009765625 12.398631930351257 9.389739990234375 12.451042175292969 C 9.353233337402344 12.562508344650269 9.323249816894531 12.676391124725342 9.294525146484375 12.790878057479858 C 9.281021118164062 12.844496607780457 9.264999389648438 12.896906852722168 9.253211975097656 12.95112955570221 C 9.22723388671875 13.072111129760742 9.209037780761719 13.194905161857605 9.191986083984375 13.318907499313354 C 9.18511962890625 13.369052171707153 9.174591064453125 13.417837500572205 9.169212341308594 13.468586325645447 C 9.150558471679688 13.643186450004578 9.139915466308594 13.820203185081482 9.139915466308594 13.99963653087616 C 9.139915466308594 16.739015817642212 11.360641479492188 18.959276914596558 14.100013732910156 18.959276914596558 C 16.839271545410156 18.959276914596558 19.05999755859375 16.739015817642212 19.05999755859375 13.99963653087616 C 19.05999755859375 13.820203185081482 19.049354553222656 13.643186450004578 19.03070068359375 13.468586325645447 C 19.02532196044922 13.417837500572205 19.014793395996094 13.369052171707153 19.00792694091797 13.318907499313354 C 18.990875244140625 13.194905161857605 18.972679138183594 13.072111129760742 18.946701049804688 12.95112955570221 C 18.934913635253906 12.896906852722168 18.91889190673828 12.844496607780457 18.90538787841797 12.790878057479858 C 18.876663208007812 12.676391124725342 18.8466796875 12.562508344650269 18.81017303466797 12.451042175292969 C 18.79277801513672 12.398631930351257 18.772293090820312 12.348034143447876 18.75318145751953 12.295472860336304 C 18.713356018066406 12.18702745437622 18.67169952392578 12.079186201095581 18.624549865722656 11.974214673042297 C 18.616539001464844 11.956392168998718 18.610931396484375 11.937361359596252 18.602691650390625 11.919387817382812 C 18.602691650390625 11.919387817382812 18.598228454589844 11.919387817382812 18.598228454589844 11.919387817382812 C 17.81110382080078 10.220661520957947 16.09552001953125 9.039240956306458 14.100013732910156 9.039240956306458 Z M 24.019981384277344 5.359346985816956 C 24.019981384277344 4.652488350868225 23.446861267089844 4.07960057258606 22.739959716796875 4.07960057258606 C 22.739959716796875 4.07960057258606 20.179916381835938 4.07960057258606 20.179916381835938 4.07960057258606 C 19.47301483154297 4.07960057258606 18.900009155273438 4.652488350868225 18.900009155273438 5.359346985816956 C 18.900009155273438 5.359346985816956 18.900009155273438 7.919897079467773 18.900009155273438 7.919897079467773 C 18.900009155273438 8.626906752586365 19.47301483154297 9.19964349269867 20.179916381835938 9.19964349269867 C 20.179916381835938 9.19964349269867 22.739959716796875 9.19964349269867 22.739959716796875 9.19964349269867 C 23.446861267089844 9.19964349269867 24.019981384277344 8.626906752586365 24.019981384277344 7.919897079467773 C 24.019981384277344 7.919897079467773 24.019981384277344 5.359346985816956 24.019981384277344 5.359346985816956 Z M 24.019981384277344 11.919387817382812 C 24.019981384277344 11.919387817382812 21.660324096679688 11.919387817382812 21.660324096679688 11.919387817382812 C 21.84239959716797 12.582143306732178 21.940017700195312 13.279637575149536 21.940017700195312 13.99963653087616 C 21.940017700195312 18.329900860786438 18.429885864257812 21.839423775672913 14.100013732910156 21.839423775672913 C 9.770027160644531 21.839423775672913 6.260009765625 18.329900860786438 6.260009765625 13.99963653087616 C 6.260009765625 13.279637575149536 6.357627868652344 12.582143306732178 6.539588928222656 11.919387817382812 C 6.539588928222656 11.919387817382812 4.179931640625 11.919387817382812 4.179931640625 11.919387817382812 C 4.179931640625 11.919387817382812 4.179931640625 22.63932192325592 4.179931640625 22.63932192325592 C 4.179931640625 23.346784710884094 4.7530517578125 23.91967248916626 5.459953308105469 23.91967248916626 C 5.459953308105469 23.91967248916626 22.739959716796875 23.91967248916626 22.739959716796875 23.91967248916626 C 23.446861267089844 23.91967248916626 24.019981384277344 23.346784710884094 24.019981384277344 22.63932192325592 C 24.019981384277344 22.63932192325592 24.019981384277344 11.919387817382812 24.019981384277344 11.919387817382812 Z"></path>
  </symbol>
</svg>